<?xml version="1.0" encoding="utf-8"?>
<!-- Generator: Adobe Illustrator 26.0.2, SVG Export Plug-In . SVG Version: 6.00 Build 0)  -->
<svg version="1.1" id="레이어_1" xmlns="http://www.w3.org/2000/svg" xmlns:xlink="http://www.w3.org/1999/xlink" x="0px"
	 y="0px" viewBox="0 0 132 49" style="enable-background:new 0 0 132 49;" xml:space="preserve">
<style type="text/css">
	.st0{fill:#00D59B;}
</style>
<g>
	<g>
		<path class="st0" d="M0,41.3h3.4c0.5,0,0.9,0.1,1.3,0.3c0.4,0.2,0.7,0.4,1,0.8s0.5,0.7,0.7,1.2C6.6,44,6.6,44.5,6.6,45
			c0,0.5-0.1,1-0.2,1.5C6.2,47,6,47.4,5.7,47.7C5.4,48,5,48.3,4.5,48.5s-1,0.3-1.5,0.3H0V41.3z M1.5,47.6h1.4c0.4,0,0.7-0.1,1-0.2
			c0.3-0.1,0.5-0.3,0.7-0.5c0.2-0.2,0.3-0.5,0.4-0.8c0.1-0.3,0.1-0.7,0.1-1c0-0.4-0.1-0.7-0.2-1c-0.1-0.3-0.3-0.6-0.5-0.8
			c-0.2-0.2-0.5-0.4-0.8-0.5c-0.3-0.1-0.6-0.2-1-0.2H1.5V47.6z"/>
		<path class="st0" d="M20.8,44.4v1.2h-3.9v2.1H21v1.1h-5.7v-7.4H21v1.2h-4.1v1.9H20.8z"/>
		<path class="st0" d="M30.1,46.8c0.2,0.1,0.4,0.3,0.6,0.4s0.4,0.2,0.6,0.3c0.2,0.1,0.5,0.1,0.7,0.2c0.2,0,0.5,0.1,0.7,0.1
			c0.4,0,0.7-0.1,0.9-0.2c0.2-0.1,0.4-0.4,0.4-0.7c0-0.3-0.1-0.6-0.4-0.8c-0.2-0.2-0.6-0.3-1.1-0.4c-0.5-0.1-0.9-0.2-1.3-0.4
			c-0.4-0.1-0.7-0.3-0.9-0.5c-0.2-0.2-0.4-0.4-0.6-0.7c-0.1-0.3-0.2-0.5-0.2-0.9c0-0.4,0.1-0.7,0.2-0.9c0.2-0.3,0.4-0.5,0.6-0.7
			c0.3-0.2,0.6-0.3,0.9-0.4c0.3-0.1,0.7-0.1,1.1-0.1c0.5,0,1,0.1,1.4,0.2s0.9,0.4,1.4,0.7l-0.6,1.1c-0.3-0.2-0.6-0.4-1-0.5
			c-0.4-0.1-0.8-0.2-1.2-0.2c-0.2,0-0.3,0-0.5,0s-0.3,0.1-0.4,0.1c-0.1,0.1-0.2,0.1-0.3,0.3c-0.1,0.1-0.1,0.2-0.1,0.4
			c0,0.1,0,0.3,0.1,0.4c0,0.1,0.1,0.2,0.2,0.3c0.1,0.1,0.3,0.2,0.5,0.2c0.2,0.1,0.4,0.2,0.7,0.2c0.5,0.1,1,0.3,1.3,0.4
			c0.4,0.2,0.7,0.3,0.9,0.5c0.2,0.2,0.4,0.4,0.5,0.7c0.1,0.2,0.2,0.5,0.2,0.9c0,0.4-0.1,0.7-0.2,0.9c-0.2,0.3-0.4,0.5-0.6,0.7
			c-0.3,0.2-0.6,0.3-0.9,0.4c-0.4,0.1-0.7,0.1-1.1,0.1c-0.6,0-1.1-0.1-1.7-0.3c-0.5-0.2-1-0.4-1.5-0.7L30.1,46.8z"/>
		<path class="st0" d="M45.8,41.3v7.4h-1.5v-7.4H45.8z"/>
		<path class="st0" d="M54.5,45c0-0.6,0.1-1.1,0.3-1.6c0.2-0.5,0.5-0.9,0.8-1.2c0.3-0.3,0.8-0.6,1.2-0.8s1-0.3,1.6-0.3
			c1.4,0,2.5,0.6,3.4,1.8l-1,0.7c-0.2-0.4-0.6-0.8-1-1c-0.4-0.3-0.9-0.4-1.4-0.4c-0.4,0-0.7,0.1-1,0.2c-0.3,0.1-0.6,0.3-0.8,0.6
			c-0.2,0.2-0.4,0.5-0.5,0.9C56,44.3,56,44.7,56,45c0,0.4,0.1,0.8,0.2,1.1c0.1,0.3,0.3,0.6,0.5,0.9c0.2,0.2,0.4,0.4,0.7,0.6
			c0.3,0.1,0.6,0.2,1,0.2c0.3,0,0.6,0,0.9-0.1c0.3-0.1,0.5-0.2,0.7-0.4c0.2-0.2,0.4-0.4,0.5-0.6c0.1-0.2,0.2-0.5,0.2-0.8h-2.3v-1.2
			h3.8v0.7c0,0.5-0.1,1-0.3,1.5c-0.2,0.4-0.4,0.8-0.7,1.1c-0.3,0.3-0.7,0.6-1.1,0.7C59.5,48.9,59,49,58.4,49c-0.6,0-1.1-0.1-1.5-0.3
			c-0.5-0.2-0.9-0.4-1.2-0.8c-0.4-0.3-0.6-0.8-0.8-1.2C54.6,46.2,54.5,45.6,54.5,45z"/>
		<path class="st0" d="M70.8,41.3h1.5l3.5,5.4v-5.4h1.5v7.4h-1.5l-3.5-5.3v5.3h-1.5V41.3z"/>
		<path class="st0" d="M96.1,41.3h1.5v6.3h4v1.2h-5.5V41.3z"/>
		<path class="st0" d="M109.6,48.8l2.7-7.4h1.6l2.7,7.4h-1.5l-0.9-2.4l-2.7,0.7l-0.6,1.7H109.6z M112.1,45.9l1.9-0.5l-0.9-2.4
			L112.1,45.9z"/>
		<path class="st0" d="M131.5,43.2c0,0.3-0.1,0.7-0.2,1c-0.2,0.3-0.4,0.5-0.7,0.7c0.2,0.1,0.4,0.1,0.6,0.3c0.2,0.1,0.3,0.2,0.4,0.4
			c0.1,0.2,0.2,0.3,0.3,0.6c0.1,0.2,0.1,0.5,0.1,0.7c0,0.3-0.1,0.6-0.2,0.9c-0.1,0.2-0.3,0.4-0.4,0.6c-0.2,0.2-0.4,0.3-0.7,0.4
			c-0.2,0.1-0.5,0.1-0.8,0.1h-4.6v-7.4h4.2c0.3,0,0.5,0,0.8,0.1c0.2,0.1,0.5,0.2,0.7,0.3c0.2,0.1,0.3,0.3,0.4,0.6
			C131.5,42.6,131.5,42.9,131.5,43.2z M129.3,44.2c0.3-0.1,0.5-0.2,0.6-0.4c0.1-0.2,0.2-0.4,0.2-0.6c0-0.3-0.1-0.5-0.3-0.6
			c-0.2-0.1-0.4-0.2-0.6-0.2h-2.5v2.5L129.3,44.2z M130.3,46.5c0-0.3-0.1-0.6-0.4-0.8c-0.2-0.2-0.6-0.3-0.9-0.4l-2.3,0.7v1.6h2.4
			c0.4,0,0.7-0.1,0.9-0.3C130.2,47.2,130.3,46.9,130.3,46.5z"/>
	</g>
	<g>
		<path class="st0" d="M0.1,0h15.7C18,0,20,0.5,21.8,1.3c1.8,0.8,3.2,2,4.5,3.4c1.2,1.4,2.2,3.1,2.8,5.1c0.6,2,1,4.1,1,6.4
			c0,2.4-0.3,4.6-1,6.6c-0.7,2-1.7,3.7-3.1,5.2c-1.3,1.4-3,2.6-5,3.4c-2,0.8-4.2,1.2-6.8,1.2h-14V0z M8.6,25.5h5
			c1.3,0,2.5-0.3,3.5-0.8c1-0.5,1.8-1.2,2.5-2s1.1-1.9,1.5-3c0.3-1.1,0.5-2.3,0.5-3.6c0-1.2-0.2-2.4-0.6-3.5
			c-0.4-1.1-0.9-2.1-1.6-2.9c-0.7-0.8-1.6-1.5-2.7-1.9C15.6,7.3,14.3,7,12.9,7H8.6V25.5z"/>
		<path class="st0" d="M39.3,32.5L50.3,0H61l11,32.5h-8.5l-3.1-9.1l-10.5,2.9l-2.1,6.2H39.3z M52.5,18.6l5.7-1.6l-2.6-7.6L52.5,18.6
			z"/>
		<path class="st0" d="M73.2,0h18.2c1.4,0,2.7,0.2,4,0.6c1.2,0.4,2.3,1,3.2,1.7s1.6,1.8,2.1,3c0.5,1.2,0.8,2.7,0.8,4.3
			c0,2.2-0.4,3.9-1.1,5.3c-0.7,1.3-1.8,2.4-3.3,3.2l6.2,14.3h-8.8l-5.1-11.9l-7.7,1.7v10.2h-8.5V0z M93.1,9.9c0-0.8-0.3-1.4-0.8-2
			c-0.5-0.6-1.2-0.8-2-0.8h-8.6v7.9l7.7-1.4c1.4-0.2,2.3-0.7,2.9-1.3C92.8,11.5,93.1,10.7,93.1,9.9z"/>
		<path class="st0" d="M121.7,7v25.5h-8.5V7h-10.3V0H132v7H121.7z"/>
	</g>
	<circle class="st0" cx="33.6" cy="30.7" r="3.9"/>
</g>
</svg>
